<svg width="192" height="41" fill="none" xmlns="http://www.w3.org/2000/svg"><g clip-path="url(#a)"><path fill-rule="evenodd" clip-rule="evenodd" d="M17.322 0 0 10.008v9.413l7.029 4.061v-9.424L24.35 4.063 17.322 0ZM0 30.011l17.322 9.995 8.14-4.686v-8.126l-8.14 4.7h-.014L0 21.899v8.112ZM26.49 5.295l8.153 4.713v20.003l-7.042 4.063.027-20.017-8.153-4.699 7.015-4.063Z" fill="#fff"/><path d="M9.25 15.493v9.142l8.099 4.672 8.112-4.672v-9.142l-8.112 4.686-8.099-4.686Z" fill="#FFB800"/><path fill-rule="evenodd" clip-rule="evenodd" d="M147.741 11.227a.389.389 0 0 0-.704 0l-9.101 18.744a.253.253 0 0 0 .23.365h2.966c.095 0 .19-.054.231-.149l2.139-4.645a.252.252 0 0 1 .231-.15h7.286a.25.25 0 0 1 .23.15l2.14 4.645a.25.25 0 0 0 .23.15h2.966c.19 0 .311-.204.23-.366l-9.074-18.744Zm1.842 10.93h-4.388c-.054 0-.095-.055-.067-.11l2.194-4.753a.076.076 0 0 1 .135 0l2.194 4.754c.027.054 0 .108-.068.108ZM58.845 11.375h2.966c.19 0 .311.203.257.366l-9.1 18.743a.39.39 0 0 1-.705 0l-9.101-18.744c-.095-.203 0-.365.23-.365h2.871c.15 0 .285.095.352.23l5.919 11.837c.027.054.108.054.135 0l5.946-11.918a.25.25 0 0 1 .23-.15Zm115.373 15.859h-11.214c-.067 0-.135-.054-.135-.122v-15.48c0-.135-.122-.257-.271-.257h-2.749c-.149 0-.271.108-.271.257v18.46c0 .135.122.257.271.257h14.328a.267.267 0 0 0 .271-.244l.041-2.6c-.014-.15-.122-.271-.271-.271Zm-46.331-15.86h-5.972a.25.25 0 0 0-.258.258v18.46c0 .135.122.257.258.257h6.203c5.525 0 9.994-4.456 9.791-9.846-.203-5.133-4.726-9.128-10.022-9.128Zm.231 15.86h-3.129c-.068 0-.135-.054-.135-.122V14.599c0-.068.054-.122.135-.122h2.925c3.427 0 6.433 2.465 6.758 5.77.38 3.792-2.708 6.988-6.554 6.988ZM94.192 23.55c-.04.014-.054.068-.027.108l4.429 6.298c.122.162 0 .393-.203.393h-3.183a.239.239 0 0 1-.203-.109l-4.713-6.338a.239.239 0 0 0-.203-.108h-3.142c-.055 0-.082.04-.082.081v6.216a.257.257 0 0 1-.257.258h-2.614a.257.257 0 0 1-.257-.258V11.633c0-.149.122-.257.257-.257h7.855c3.494 0 6.338 2.83 6.338 6.31 0 2.615-1.625 4.917-3.995 5.865Zm-5.756-2.64h3.291c1.653 0 3.115-1.166 3.318-2.804.258-1.964-1.286-3.643-3.21-3.643H86.92c-.055 0-.082.04-.082.08v6.298c0 .041.04.082.082.082h1.516v-.014ZM68.15 27.234h11.268c.149 0 .257.122.284.257l-.04 2.6a.267.267 0 0 1-.271.244H65.06c-.149 0-.27-.122-.27-.257v-18.46c0-.148.121-.257.27-.257h14.356c.149 0 .27.122.27.258l-.026 2.586a.267.267 0 0 1-.271.244H68.149c-.04 0-.081.04-.081.081v4.686c0 .055.04.082.08.082h8.6c.15 0 .272.121.272.257l-.041 2.6a.267.267 0 0 1-.27.244h-8.56c-.04 0-.081.04-.081.081v4.672c0 .055.04.082.08.082Zm123.58-.027h-10.915c-.041 0-.082-.027-.082-.082v-4.699c0-.04.041-.081.082-.081h8.288c.135 0 .257-.109.257-.244l.041-2.6a.258.258 0 0 0-.257-.258h-8.329c-.041 0-.082-.027-.082-.08v-4.7c0-.041.041-.082.082-.082h10.888c.136 0 .257-.108.257-.243l.028-2.6a.258.258 0 0 0-.258-.258h-13.908a.257.257 0 0 0-.258.257v18.527c0 .136.109.258.258.258h13.881c.136 0 .257-.109.257-.244l.041-2.614a.279.279 0 0 0-.271-.257ZM114.52 11.674c0-.136.109-.244.244-.244h2.6c.136 0 .244.108.244.244v18.892c0 .339-.42.501-.65.244L105.92 19.041c-.054-.04-.135-.013-.135.054v11.01a.243.243 0 0 1-.244.245h-2.586a.243.243 0 0 1-.244-.244V11.674c0-.339.42-.501.65-.244l11.024 11.43c.054.041.135.014.135-.054V11.674Z" fill="#fff"/></g><defs><clipPath id="a"><path fill="#fff" d="M0 0h192v41H0z"/></clipPath></defs></svg>